<svg width="149" height="278" viewBox="0 0 149 278" fill="none" xmlns="http://www.w3.org/2000/svg">
<mask id="mask0_210_3765" style="mask-type:alpha" maskUnits="userSpaceOnUse" x="-125" y="2" width="274" height="274">
<path d="M12.7698 273.364C-61.3636 270.804 -121.78 208.629 -122.175 134.491C-122.569 60.3539 -62.7916 2.32925 11.3417 4.88947C85.4751 7.44968 145.892 69.6253 146.286 143.763C146.68 217.9 86.9031 275.925 12.7698 273.364Z" fill="#C4C4C4" stroke="black" stroke-width="5"/>
</mask>
<g mask="url(#mask0_210_3765)">
<path d="M94.1383 457.273L-197.558 149.024L-197.927 149.386L93.7688 457.636L94.1383 457.273Z" fill="#507BE6" stroke="#507BE6" stroke-width="5"/>
<path d="M99.0729 444.666L-192.623 136.417L-192.993 136.779L98.7034 445.029L99.0729 444.666Z" fill="#507BE6" stroke="#507BE6" stroke-width="5"/>
<path d="M104.008 431.997L-187.688 123.747L-188.057 124.11L103.639 432.359L104.008 431.997Z" fill="#507BE6" stroke="#507BE6" stroke-width="5"/>
<path d="M108.943 419.389L-182.753 111.14L-183.123 111.502L108.573 419.752L108.943 419.389Z" fill="#507BE6" stroke="#507BE6" stroke-width="5"/>
<path d="M113.848 406.751L-177.848 98.5016L-178.217 98.8641L113.479 407.114L113.848 406.751Z" fill="#507BE6" stroke="#507BE6" stroke-width="5"/>
<path d="M118.753 394.112L-172.943 85.8623L-173.313 86.2249L118.383 394.474L118.753 394.112Z" fill="#507BE6" stroke="#507BE6" stroke-width="5"/>
<path d="M123.687 381.505L-168.01 73.2554L-168.379 73.6179L123.317 381.867L123.687 381.505Z" fill="#507BE6" stroke="#507BE6" stroke-width="5"/>
<path d="M128.592 368.866L-163.104 60.6165L-163.473 60.979L128.223 369.228L128.592 368.866Z" fill="#507BE6" stroke="#507BE6" stroke-width="5"/>
<path d="M133.527 356.259L-158.169 48.0093L-158.539 48.3718L133.157 356.621L133.527 356.259Z" fill="#507BE6" stroke="#507BE6" stroke-width="5"/>
<path d="M138.432 343.619L-153.264 35.3701L-153.634 35.7327L138.063 343.982L138.432 343.619Z" fill="#507BE6" stroke="#507BE6" stroke-width="5"/>
<path d="M143.367 331.012L-148.329 22.7629L-148.698 23.1255L142.998 331.375L143.367 331.012Z" fill="#507BE6" stroke="#507BE6" stroke-width="5"/>
<path d="M148.272 318.373L-143.425 10.1237L-143.794 10.4862L147.902 318.736L148.272 318.373Z" fill="#507BE6" stroke="#507BE6" stroke-width="5"/>
<path d="M153.207 305.766L-138.489 -2.48352L-138.858 -2.12097L152.838 306.128L153.207 305.766Z" fill="#507BE6" stroke="#507BE6" stroke-width="5"/>
<path d="M158.111 293.127L-133.585 -15.1221L-133.954 -14.7595L157.742 293.49L158.111 293.127Z" fill="#507BE6" stroke="#507BE6" stroke-width="5"/>
<path d="M163.047 280.458L-128.649 -27.7913L-129.018 -27.4287L162.678 280.821L163.047 280.458Z" fill="#507BE6" stroke="#507BE6" stroke-width="5"/>
<path d="M167.982 267.851L-123.714 -40.3987L-124.083 -40.0361L167.613 268.213L167.982 267.851Z" fill="#507BE6" stroke="#507BE6" stroke-width="5"/>
<path d="M172.886 255.212L-118.81 -53.0372L-119.179 -52.6747L172.517 255.575L172.886 255.212Z" fill="#507BE6" stroke="#507BE6" stroke-width="5"/>
<path d="M177.822 242.604L-113.875 -65.6451L-114.244 -65.2826L177.452 242.967L177.822 242.604Z" fill="#507BE6" stroke="#507BE6" stroke-width="5"/>
<path d="M182.726 229.966L-108.97 -78.2838L-109.339 -77.9213L182.357 230.328L182.726 229.966Z" fill="#507BE6" stroke="#507BE6" stroke-width="5"/>
<path d="M187.662 217.359L-104.034 -90.8907L-104.404 -90.5282L187.292 217.721L187.662 217.359Z" fill="#507BE6" stroke="#507BE6" stroke-width="5"/>
<path d="M192.567 204.72L-99.1296 -103.53L-99.4991 -103.167L192.197 205.082L192.567 204.72Z" fill="#507BE6" stroke="#507BE6" stroke-width="5"/>
<path d="M197.501 192.112L-94.1951 -116.138L-94.5645 -115.775L197.132 192.474L197.501 192.112Z" fill="#507BE6" stroke="#507BE6" stroke-width="5"/>
<path d="M202.406 179.473L-89.2905 -128.776L-89.66 -128.414L202.036 179.836L202.406 179.473Z" fill="#507BE6" stroke="#507BE6" stroke-width="5"/>
<path d="M207.311 166.834L-84.385 -141.415L-84.7545 -141.052L206.942 167.197L207.311 166.834Z" fill="#507BE6" stroke="#507BE6" stroke-width="5"/>
<path d="M212.246 154.227L-79.4502 -154.023L-79.8197 -153.66L211.876 154.589L212.246 154.227Z" fill="#507BE6" stroke="#507BE6" stroke-width="5"/>
<path d="M217.182 141.558L-74.5144 -166.692L-74.8839 -166.329L216.812 141.92L217.182 141.558Z" fill="#507BE6" stroke="#507BE6" stroke-width="5"/>
<path d="M222.116 128.951L-69.5803 -179.299L-69.9498 -178.936L221.746 129.313L222.116 128.951Z" fill="#507BE6" stroke="#507BE6" stroke-width="5"/>
</g>
</svg>
