<svg width="565" height="378" viewBox="0 0 565 378" fill="none" xmlns="http://www.w3.org/2000/svg">
<g opacity="0.5">
<ellipse cx="397.624" cy="2.82121" rx="2.80517" ry="2.82121" fill="#507BE6"/>
<ellipse cx="438.767" cy="2.82121" rx="2.80517" ry="2.82121" fill="#507BE6"/>
<ellipse cx="479.909" cy="2.82121" rx="2.80517" ry="2.82121" fill="#507BE6"/>
<ellipse cx="521.051" cy="2.82121" rx="2.80517" ry="2.82121" fill="#507BE6"/>
<ellipse cx="562.194" cy="2.82121" rx="2.80517" ry="2.82121" fill="#507BE6"/>
<ellipse cx="397.624" cy="44.1943" rx="2.80517" ry="2.82121" fill="#507BE6"/>
<ellipse cx="438.767" cy="44.1943" rx="2.80517" ry="2.82121" fill="#507BE6"/>
<ellipse cx="479.909" cy="44.1943" rx="2.80517" ry="2.82121" fill="#507BE6"/>
<ellipse cx="521.051" cy="44.1943" rx="2.80517" ry="2.82121" fill="#507BE6"/>
<ellipse cx="562.194" cy="44.1943" rx="2.80517" ry="2.82121" fill="#507BE6"/>
<ellipse cx="397.624" cy="85.5677" rx="2.80517" ry="2.82121" fill="#507BE6"/>
<ellipse cx="438.767" cy="85.5677" rx="2.80517" ry="2.82121" fill="#507BE6"/>
<ellipse cx="479.909" cy="85.5677" rx="2.80517" ry="2.82121" fill="#507BE6"/>
<ellipse cx="521.051" cy="85.5677" rx="2.80517" ry="2.82121" fill="#507BE6"/>
<ellipse cx="562.194" cy="85.5677" rx="2.80517" ry="2.82121" fill="#507BE6"/>
<ellipse cx="397.624" cy="126.941" rx="2.80517" ry="2.82121" fill="#507BE6"/>
<ellipse cx="438.767" cy="126.941" rx="2.80517" ry="2.82121" fill="#507BE6"/>
<ellipse cx="479.909" cy="126.941" rx="2.80517" ry="2.82121" fill="#507BE6"/>
<ellipse cx="521.051" cy="126.941" rx="2.80517" ry="2.82121" fill="#507BE6"/>
<ellipse cx="562.194" cy="126.941" rx="2.80517" ry="2.82121" fill="#507BE6"/>
<ellipse cx="397.624" cy="168.313" rx="2.80517" ry="2.82121" fill="#507BE6"/>
<ellipse cx="438.767" cy="168.313" rx="2.80517" ry="2.82121" fill="#507BE6"/>
<ellipse cx="479.909" cy="168.313" rx="2.80517" ry="2.82121" fill="#507BE6"/>
<ellipse cx="521.051" cy="168.313" rx="2.80517" ry="2.82121" fill="#507BE6"/>
<ellipse cx="562.194" cy="168.313" rx="2.80517" ry="2.82121" fill="#507BE6"/>
<ellipse cx="397.624" cy="209.687" rx="2.80517" ry="2.82121" fill="#507BE6"/>
<ellipse cx="438.767" cy="209.687" rx="2.80517" ry="2.82121" fill="#507BE6"/>
<ellipse cx="479.909" cy="209.687" rx="2.80517" ry="2.82121" fill="#507BE6"/>
<ellipse cx="521.051" cy="209.687" rx="2.80517" ry="2.82121" fill="#507BE6"/>
<ellipse cx="562.194" cy="209.687" rx="2.80517" ry="2.82121" fill="#507BE6"/>
<ellipse cx="397.624" cy="251.06" rx="2.80517" ry="2.82121" fill="#507BE6"/>
<ellipse cx="438.767" cy="251.06" rx="2.80517" ry="2.82121" fill="#507BE6"/>
<ellipse cx="479.909" cy="251.06" rx="2.80517" ry="2.82121" fill="#507BE6"/>
<ellipse cx="521.051" cy="251.06" rx="2.80517" ry="2.82121" fill="#507BE6"/>
<ellipse cx="562.194" cy="251.06" rx="2.80517" ry="2.82121" fill="#507BE6"/>
<ellipse cx="397.624" cy="292.433" rx="2.80517" ry="2.82121" fill="#507BE6"/>
<ellipse cx="438.767" cy="292.433" rx="2.80517" ry="2.82121" fill="#507BE6"/>
<ellipse cx="479.909" cy="292.433" rx="2.80517" ry="2.82121" fill="#507BE6"/>
<ellipse cx="521.051" cy="292.433" rx="2.80517" ry="2.82121" fill="#507BE6"/>
<ellipse cx="562.194" cy="292.433" rx="2.80517" ry="2.82121" fill="#507BE6"/>
<ellipse cx="397.624" cy="333.806" rx="2.80517" ry="2.82121" fill="#507BE6"/>
<ellipse cx="438.767" cy="333.806" rx="2.80517" ry="2.82121" fill="#507BE6"/>
<ellipse cx="479.909" cy="333.806" rx="2.80517" ry="2.82121" fill="#507BE6"/>
<ellipse cx="521.051" cy="333.806" rx="2.80517" ry="2.82121" fill="#507BE6"/>
<ellipse cx="562.194" cy="333.806" rx="2.80517" ry="2.82121" fill="#507BE6"/>
<ellipse cx="397.624" cy="375.179" rx="2.80517" ry="2.82121" fill="#507BE6"/>
<ellipse cx="438.767" cy="375.179" rx="2.80517" ry="2.82121" fill="#507BE6"/>
<ellipse cx="479.909" cy="375.179" rx="2.80517" ry="2.82121" fill="#507BE6"/>
<ellipse cx="521.051" cy="375.179" rx="2.80517" ry="2.82121" fill="#507BE6"/>
<ellipse cx="562.194" cy="375.179" rx="2.80517" ry="2.82121" fill="#507BE6"/>
</g>
<g opacity="0.5">
<ellipse cx="200.215" cy="2.82121" rx="2.80517" ry="2.82121" fill="#507BE6"/>
<ellipse cx="241.357" cy="2.82121" rx="2.80517" ry="2.82121" fill="#507BE6"/>
<ellipse cx="282.5" cy="2.82121" rx="2.80517" ry="2.82121" fill="#507BE6"/>
<ellipse cx="323.641" cy="2.82121" rx="2.80517" ry="2.82121" fill="#507BE6"/>
<ellipse cx="364.785" cy="2.82121" rx="2.80517" ry="2.82121" fill="#507BE6"/>
<ellipse cx="200.215" cy="44.1943" rx="2.80517" ry="2.82121" fill="#507BE6"/>
<ellipse cx="241.357" cy="44.1943" rx="2.80517" ry="2.82121" fill="#507BE6"/>
<ellipse cx="282.5" cy="44.1943" rx="2.80517" ry="2.82121" fill="#507BE6"/>
<ellipse cx="323.642" cy="44.1943" rx="2.80517" ry="2.82121" fill="#507BE6"/>
<ellipse cx="364.785" cy="44.1943" rx="2.80517" ry="2.82121" fill="#507BE6"/>
<ellipse cx="200.215" cy="85.5677" rx="2.80517" ry="2.82121" fill="#507BE6"/>
<ellipse cx="241.357" cy="85.5677" rx="2.80517" ry="2.82121" fill="#507BE6"/>
<ellipse cx="282.5" cy="85.5677" rx="2.80517" ry="2.82121" fill="#507BE6"/>
<ellipse cx="323.642" cy="85.5677" rx="2.80517" ry="2.82121" fill="#507BE6"/>
<ellipse cx="364.785" cy="85.5677" rx="2.80517" ry="2.82121" fill="#507BE6"/>
<ellipse cx="200.215" cy="126.941" rx="2.80517" ry="2.82121" fill="#507BE6"/>
<ellipse cx="241.357" cy="126.941" rx="2.80517" ry="2.82121" fill="#507BE6"/>
<ellipse cx="282.5" cy="126.941" rx="2.80517" ry="2.82121" fill="#507BE6"/>
<ellipse cx="323.642" cy="126.941" rx="2.80517" ry="2.82121" fill="#507BE6"/>
<ellipse cx="364.785" cy="126.941" rx="2.80517" ry="2.82121" fill="#507BE6"/>
<ellipse cx="200.215" cy="168.313" rx="2.80517" ry="2.82121" fill="#507BE6"/>
<ellipse cx="241.357" cy="168.313" rx="2.80517" ry="2.82121" fill="#507BE6"/>
<ellipse cx="282.5" cy="168.313" rx="2.80517" ry="2.82121" fill="#507BE6"/>
<ellipse cx="323.642" cy="168.313" rx="2.80517" ry="2.82121" fill="#507BE6"/>
<ellipse cx="364.785" cy="168.313" rx="2.80517" ry="2.82121" fill="#507BE6"/>
<ellipse cx="200.215" cy="209.687" rx="2.80517" ry="2.82121" fill="#507BE6"/>
<ellipse cx="241.357" cy="209.687" rx="2.80517" ry="2.82121" fill="#507BE6"/>
<ellipse cx="282.5" cy="209.687" rx="2.80517" ry="2.82121" fill="#507BE6"/>
<ellipse cx="323.642" cy="209.687" rx="2.80517" ry="2.82121" fill="#507BE6"/>
<ellipse cx="364.785" cy="209.687" rx="2.80517" ry="2.82121" fill="#507BE6"/>
<ellipse cx="200.215" cy="251.06" rx="2.80517" ry="2.82121" fill="#507BE6"/>
<ellipse cx="241.357" cy="251.06" rx="2.80517" ry="2.82121" fill="#507BE6"/>
<ellipse cx="282.5" cy="251.06" rx="2.80517" ry="2.82121" fill="#507BE6"/>
<ellipse cx="323.642" cy="251.06" rx="2.80517" ry="2.82121" fill="#507BE6"/>
<ellipse cx="364.785" cy="251.06" rx="2.80517" ry="2.82121" fill="#507BE6"/>
<ellipse cx="200.215" cy="292.433" rx="2.80517" ry="2.82121" fill="#507BE6"/>
<ellipse cx="241.357" cy="292.433" rx="2.80517" ry="2.82121" fill="#507BE6"/>
<ellipse cx="282.5" cy="292.433" rx="2.80517" ry="2.82121" fill="#507BE6"/>
<ellipse cx="323.642" cy="292.433" rx="2.80517" ry="2.82121" fill="#507BE6"/>
<ellipse cx="364.785" cy="292.433" rx="2.80517" ry="2.82121" fill="#507BE6"/>
<ellipse cx="200.215" cy="333.806" rx="2.80517" ry="2.82121" fill="#507BE6"/>
<ellipse cx="241.357" cy="333.806" rx="2.80517" ry="2.82121" fill="#507BE6"/>
<ellipse cx="282.5" cy="333.806" rx="2.80517" ry="2.82121" fill="#507BE6"/>
<ellipse cx="323.642" cy="333.806" rx="2.80517" ry="2.82121" fill="#507BE6"/>
<ellipse cx="364.785" cy="333.806" rx="2.80517" ry="2.82121" fill="#507BE6"/>
<ellipse cx="200.215" cy="375.179" rx="2.80517" ry="2.82121" fill="#507BE6"/>
<ellipse cx="241.357" cy="375.179" rx="2.80517" ry="2.82121" fill="#507BE6"/>
<ellipse cx="282.5" cy="375.179" rx="2.80517" ry="2.82121" fill="#507BE6"/>
<ellipse cx="323.642" cy="375.179" rx="2.80517" ry="2.82121" fill="#507BE6"/>
<ellipse cx="364.785" cy="375.179" rx="2.80517" ry="2.82121" fill="#507BE6"/>
</g>
<g opacity="0.5">
<ellipse cx="2.80517" cy="2.82133" rx="2.80517" ry="2.82121" fill="#507BE6"/>
<ellipse cx="43.9479" cy="2.82121" rx="2.80517" ry="2.82121" fill="#507BE6"/>
<ellipse cx="85.0906" cy="2.82121" rx="2.80517" ry="2.82121" fill="#507BE6"/>
<ellipse cx="126.232" cy="2.82121" rx="2.80517" ry="2.82121" fill="#507BE6"/>
<ellipse cx="167.375" cy="2.82121" rx="2.80517" ry="2.82121" fill="#507BE6"/>
<ellipse cx="2.80517" cy="44.1943" rx="2.80517" ry="2.82121" fill="#507BE6"/>
<ellipse cx="43.9477" cy="44.1943" rx="2.80517" ry="2.82121" fill="#507BE6"/>
<ellipse cx="85.0903" cy="44.1943" rx="2.80517" ry="2.82121" fill="#507BE6"/>
<ellipse cx="126.232" cy="44.1943" rx="2.80517" ry="2.82121" fill="#507BE6"/>
<ellipse cx="167.375" cy="44.1943" rx="2.80517" ry="2.82121" fill="#507BE6"/>
<ellipse cx="2.80517" cy="85.5677" rx="2.80517" ry="2.82121" fill="#507BE6"/>
<ellipse cx="43.9477" cy="85.5677" rx="2.80517" ry="2.82121" fill="#507BE6"/>
<ellipse cx="85.0903" cy="85.5677" rx="2.80517" ry="2.82121" fill="#507BE6"/>
<ellipse cx="126.232" cy="85.5677" rx="2.80517" ry="2.82121" fill="#507BE6"/>
<ellipse cx="167.375" cy="85.5677" rx="2.80517" ry="2.82121" fill="#507BE6"/>
<ellipse cx="2.80517" cy="126.941" rx="2.80517" ry="2.82121" fill="#507BE6"/>
<ellipse cx="43.9477" cy="126.941" rx="2.80517" ry="2.82121" fill="#507BE6"/>
<ellipse cx="85.0903" cy="126.941" rx="2.80517" ry="2.82121" fill="#507BE6"/>
<ellipse cx="126.232" cy="126.941" rx="2.80517" ry="2.82121" fill="#507BE6"/>
<ellipse cx="167.375" cy="126.941" rx="2.80517" ry="2.82121" fill="#507BE6"/>
<ellipse cx="2.80517" cy="168.313" rx="2.80517" ry="2.82121" fill="#507BE6"/>
<ellipse cx="43.9477" cy="168.313" rx="2.80517" ry="2.82121" fill="#507BE6"/>
<ellipse cx="85.0903" cy="168.313" rx="2.80517" ry="2.82121" fill="#507BE6"/>
<ellipse cx="126.232" cy="168.313" rx="2.80517" ry="2.82121" fill="#507BE6"/>
<ellipse cx="167.375" cy="168.313" rx="2.80517" ry="2.82121" fill="#507BE6"/>
<ellipse cx="2.80517" cy="209.687" rx="2.80517" ry="2.82121" fill="#507BE6"/>
<ellipse cx="43.9477" cy="209.687" rx="2.80517" ry="2.82121" fill="#507BE6"/>
<ellipse cx="85.0903" cy="209.687" rx="2.80517" ry="2.82121" fill="#507BE6"/>
<ellipse cx="126.232" cy="209.687" rx="2.80517" ry="2.82121" fill="#507BE6"/>
<ellipse cx="167.375" cy="209.687" rx="2.80517" ry="2.82121" fill="#507BE6"/>
<ellipse cx="2.80517" cy="251.06" rx="2.80517" ry="2.82121" fill="#507BE6"/>
<ellipse cx="43.9477" cy="251.06" rx="2.80517" ry="2.82121" fill="#507BE6"/>
<ellipse cx="85.0903" cy="251.06" rx="2.80517" ry="2.82121" fill="#507BE6"/>
<ellipse cx="126.232" cy="251.06" rx="2.80517" ry="2.82121" fill="#507BE6"/>
<ellipse cx="167.375" cy="251.06" rx="2.80517" ry="2.82121" fill="#507BE6"/>
<ellipse cx="2.80517" cy="292.433" rx="2.80517" ry="2.82121" fill="#507BE6"/>
<ellipse cx="43.9477" cy="292.433" rx="2.80517" ry="2.82121" fill="#507BE6"/>
<ellipse cx="85.0903" cy="292.433" rx="2.80517" ry="2.82121" fill="#507BE6"/>
<ellipse cx="126.232" cy="292.433" rx="2.80517" ry="2.82121" fill="#507BE6"/>
<ellipse cx="167.375" cy="292.433" rx="2.80517" ry="2.82121" fill="#507BE6"/>
<ellipse cx="2.80517" cy="333.806" rx="2.80517" ry="2.82121" fill="#507BE6"/>
<ellipse cx="43.9477" cy="333.806" rx="2.80517" ry="2.82121" fill="#507BE6"/>
<ellipse cx="85.0903" cy="333.806" rx="2.80517" ry="2.82121" fill="#507BE6"/>
<ellipse cx="126.232" cy="333.806" rx="2.80517" ry="2.82121" fill="#507BE6"/>
<ellipse cx="167.375" cy="333.806" rx="2.80517" ry="2.82121" fill="#507BE6"/>
<ellipse cx="2.80517" cy="375.179" rx="2.80517" ry="2.82121" fill="#507BE6"/>
<ellipse cx="43.9477" cy="375.179" rx="2.80517" ry="2.82121" fill="#507BE6"/>
<ellipse cx="85.0903" cy="375.179" rx="2.80517" ry="2.82121" fill="#507BE6"/>
<ellipse cx="126.232" cy="375.179" rx="2.80517" ry="2.82121" fill="#507BE6"/>
<ellipse cx="167.375" cy="375.179" rx="2.80517" ry="2.82121" fill="#507BE6"/>
</g>
</svg>
