<svg width="207" height="262" viewBox="0 0 207 262" fill="none" xmlns="http://www.w3.org/2000/svg">
<mask id="mask0_210_3708" style="mask-type:alpha" maskUnits="userSpaceOnUse" x="0" y="-14" width="274" height="274">
<path d="M137.77 257.364C63.6363 254.804 3.21971 192.629 2.82536 118.491C2.43102 44.3539 62.2083 -13.6707 136.342 -11.1105C210.475 -8.55032 270.892 53.6253 271.286 127.763C271.68 201.9 211.903 259.925 137.77 257.364Z" fill="#C4C4C4" stroke="black" stroke-width="5"/>
</mask>
<g mask="url(#mask0_210_3708)">
<path d="M219.138 441.273L-72.5583 133.024L-72.9278 133.386L218.768 441.636L219.138 441.273Z" fill="#507BE6" stroke="#507BE6" stroke-width="5"/>
<path d="M224.073 428.666L-67.6232 120.417L-67.9926 120.779L223.704 429.029L224.073 428.666Z" fill="#507BE6" stroke="#507BE6" stroke-width="5"/>
<path d="M229.008 415.997L-62.6881 107.748L-63.0576 108.11L228.639 416.359L229.008 415.997Z" fill="#507BE6" stroke="#507BE6" stroke-width="5"/>
<path d="M233.943 403.389L-57.7529 95.1399L-58.1224 95.5025L233.574 403.752L233.943 403.389Z" fill="#507BE6" stroke="#507BE6" stroke-width="5"/>
<path d="M238.849 390.751L-52.8475 82.5015L-53.217 82.864L238.479 391.113L238.849 390.751Z" fill="#507BE6" stroke="#507BE6" stroke-width="5"/>
<path d="M243.752 378.112L-47.944 69.8625L-48.3134 70.2251L243.383 378.474L243.752 378.112Z" fill="#507BE6" stroke="#507BE6" stroke-width="5"/>
<path d="M248.688 365.504L-43.0078 57.2549L-43.3773 57.6174L248.319 365.867L248.688 365.504Z" fill="#507BE6" stroke="#507BE6" stroke-width="5"/>
<path d="M253.593 352.866L-38.1035 44.6163L-38.473 44.9789L253.223 353.228L253.593 352.866Z" fill="#507BE6" stroke="#507BE6" stroke-width="5"/>
<path d="M258.528 340.259L-33.1683 32.0093L-33.5378 32.3718L258.158 340.621L258.528 340.259Z" fill="#507BE6" stroke="#507BE6" stroke-width="5"/>
<path d="M263.432 327.619L-28.2637 19.3696L-28.6331 19.7322L263.063 327.982L263.432 327.619Z" fill="#507BE6" stroke="#507BE6" stroke-width="5"/>
<path d="M268.368 315.012L-23.3284 6.7627L-23.6978 7.12525L267.998 315.375L268.368 315.012Z" fill="#507BE6" stroke="#507BE6" stroke-width="5"/>
<path d="M273.272 302.373L-18.4237 -5.87622L-18.7932 -5.51367L272.903 302.736L273.272 302.373Z" fill="#507BE6" stroke="#507BE6" stroke-width="5"/>
<path d="M278.208 289.766L-13.4884 -18.483L-13.8579 -18.1205L277.838 290.129L278.208 289.766Z" fill="#507BE6" stroke="#507BE6" stroke-width="5"/>
<path d="M283.112 277.127L-8.58423 -31.1221L-8.95371 -30.7595L282.742 277.49L283.112 277.127Z" fill="#507BE6" stroke="#507BE6" stroke-width="5"/>
<path d="M288.047 264.458L-3.64868 -43.7913L-4.01816 -43.4287L287.678 264.821L288.047 264.458Z" fill="#507BE6" stroke="#507BE6" stroke-width="5"/>
<path d="M292.982 251.851L1.28613 -56.3988L0.916656 -56.0362L292.613 252.213L292.982 251.851Z" fill="#507BE6" stroke="#507BE6" stroke-width="5"/>
<path d="M297.887 239.212L6.19128 -69.0374L5.82182 -68.6748L297.518 239.575L297.887 239.212Z" fill="#507BE6" stroke="#507BE6" stroke-width="5"/>
<path d="M302.822 226.605L11.1256 -81.6448L10.7561 -81.2822L302.452 226.967L302.822 226.605Z" fill="#507BE6" stroke="#507BE6" stroke-width="5"/>
<path d="M307.726 213.966L16.0303 -94.2837L15.6608 -93.9211L307.357 214.328L307.726 213.966Z" fill="#507BE6" stroke="#507BE6" stroke-width="5"/>
<path d="M312.662 201.358L20.9659 -106.891L20.5965 -106.528L312.293 201.721L312.662 201.358Z" fill="#507BE6" stroke="#507BE6" stroke-width="5"/>
<path d="M317.567 188.719L25.8707 -119.53L25.5013 -119.168L317.197 189.082L317.567 188.719Z" fill="#507BE6" stroke="#507BE6" stroke-width="5"/>
<path d="M322.501 176.112L30.8053 -132.137L30.4358 -131.775L322.132 176.475L322.501 176.112Z" fill="#507BE6" stroke="#507BE6" stroke-width="5"/>
<path d="M327.406 163.473L35.7095 -144.776L35.34 -144.413L327.036 163.836L327.406 163.473Z" fill="#507BE6" stroke="#507BE6" stroke-width="5"/>
<path d="M332.311 150.834L40.6152 -157.415L40.2458 -157.052L331.942 151.197L332.311 150.834Z" fill="#507BE6" stroke="#507BE6" stroke-width="5"/>
<path d="M337.246 138.227L45.5499 -170.022L45.1805 -169.66L336.877 138.59L337.246 138.227Z" fill="#507BE6" stroke="#507BE6" stroke-width="5"/>
<path d="M342.182 125.558L50.4861 -182.692L50.1166 -182.329L341.813 125.92L342.182 125.558Z" fill="#507BE6" stroke="#507BE6" stroke-width="5"/>
<path d="M347.116 112.95L55.4203 -195.299L55.0508 -194.937L346.747 113.313L347.116 112.95Z" fill="#507BE6" stroke="#507BE6" stroke-width="5"/>
</g>
</svg>
