<svg width="60" height="60" viewBox="0 0 60 60" fill="none" xmlns="http://www.w3.org/2000/svg">
<g clip-path="url(#clip0_87_388)">
<path fill-rule="evenodd" clip-rule="evenodd" d="M14.1146 15.3473L12.9565 15.3467L13.1246 16.4924L13.2393 17.2748H18.1032V17.3497L52.5781 17.3702H52.633L52.6876 17.3642C53.2994 17.2972 54.0399 17.4214 54.4879 17.8095C54.838 18.1127 55.2716 18.813 54.7944 20.5666L52.5376 27.983L50.7452 32.8912C50.0623 34.3836 49.71 34.9095 49.0476 35.2284C48.679 35.4059 48.1528 35.5443 47.3167 35.632C46.4822 35.7194 45.4026 35.7508 43.9564 35.7508H18.1032V35.8234H15.9594L16.1167 36.8959L16.2421 37.7508H17.1061H43.9564C45.4145 37.7508 46.5812 37.72 47.5252 37.6211C48.4674 37.5223 49.2515 37.35 49.9153 37.0304C51.3126 36.3577 51.9129 35.1495 52.5808 33.6864L52.597 33.6509L52.6104 33.6142L54.4256 28.6433L54.435 28.6176L54.443 28.5914L56.712 21.1351L56.7161 21.1216L56.7198 21.1081C57.326 18.8947 56.929 17.278 55.7974 16.2978C54.785 15.4208 53.4296 15.283 52.5278 15.3701L14.1146 15.3473Z" fill="#507BE6"/>
<path d="M2 8C2 8 2.81569 8 6.98691 8C11.1581 8 11.9738 10.3186 12.9712 15.4194C13.9686 20.5203 15.3066 32.4526 16.462 36.7503C17.6175 41.048 18.4568 42.7786 21.9476 42.7786C25.4385 42.7786 42.1596 42.8436 50.8556 42.8436" stroke="#507BE6" stroke-width="2" stroke-linecap="round"/>
<path d="M48.8716 47.8991C48.8716 50.0967 46.933 52 44.386 52C41.8389 52 39.9004 50.0967 39.9004 47.8991C39.9004 45.7015 41.8389 43.7983 44.386 43.7983C46.933 43.7983 48.8716 45.7015 48.8716 47.8991Z" stroke="#507BE6" stroke-width="2"/>
<path d="M29.0469 47.8991C29.0469 50.0967 27.1083 52 24.5613 52C22.0142 52 20.0757 50.0967 20.0757 47.8991C20.0757 45.7015 22.0142 43.7983 24.5613 43.7983C27.1083 43.7983 29.0469 45.7015 29.0469 47.8991Z" stroke="#507BE6" stroke-width="2"/>
<path d="M20.9526 22.8389H46.9526" stroke="#507BE6" stroke-width="2" stroke-linecap="round"/>
<path d="M28.9321 29.8389H46.9321" stroke="#507BE6" stroke-width="2" stroke-linecap="round"/>
</g>
<defs>
<clipPath id="clip0_87_388">
<rect width="60" height="60" fill="white"/>
</clipPath>
</defs>
</svg>
