<svg width="60" height="60" viewBox="0 0 60 60" fill="none" xmlns="http://www.w3.org/2000/svg">
<mask id="path-1-inside-1_98_785" fill="white">
<path fill-rule="evenodd" clip-rule="evenodd" d="M4 12H54C54.5523 12 55 12.4477 55 13V33.2521C55.7329 33.7793 56.4039 34.3871 57 35.0625V13C57 11.3431 55.6569 10 54 10H4C2.34315 10 1 11.3431 1 13V47C1 48.6569 2.34314 50 4 50H38.2521C37.8029 49.3756 37.4122 48.7062 37.0881 48H4C3.44772 48 3 47.5523 3 47V13C3 12.4477 3.44771 12 4 12Z"/>
</mask>
<path d="M55 33.2521H53V34.2771L53.8321 34.8756L55 33.2521ZM57 35.0625L55.5005 36.386L59 40.3509V35.0625H57ZM38.2521 50V52H42.1546L39.8756 48.8321L38.2521 50ZM37.0881 48L38.9058 47.1657L38.3707 46H37.0881V48ZM54 10H4V14H54V10ZM57 13C57 11.3431 55.6569 10 54 10V14C53.4477 14 53 13.5523 53 13H57ZM57 33.2521V13H53V33.2521H57ZM53.8321 34.8756C54.4432 35.3153 55.0031 35.8224 55.5005 36.386L58.4995 33.7391C57.8046 32.9518 57.0225 32.2433 56.1679 31.6285L53.8321 34.8756ZM59 35.0625V13H55V35.0625H59ZM59 13C59 10.2386 56.7614 8 54 8V12C54.5523 12 55 12.4477 55 13H59ZM54 8H4V12H54V8ZM4 8C1.23858 8 -1 10.2386 -1 13H3C3 12.4477 3.44772 12 4 12V8ZM-1 13V47H3V13H-1ZM-1 47C-1 49.7614 1.23857 52 4 52V48C3.44772 48 3 47.5523 3 47H-1ZM4 52H38.2521V48H4V52ZM39.8756 48.8321C39.5011 48.3114 39.1756 47.7537 38.9058 47.1657L35.2704 48.8343C35.6488 49.6588 36.1047 50.4398 36.6285 51.1679L39.8756 48.8321ZM4 50H37.0881V46H4V50ZM1 47C1 48.6569 2.34314 50 4 50V46C4.55229 46 5 46.4477 5 47H1ZM1 13V47H5V13H1ZM4 10C2.34315 10 1 11.3431 1 13H5C5 13.5523 4.55228 14 4 14V10Z" fill="#507BE6" mask="url(#path-1-inside-1_98_785)"/>
<circle cx="48" cy="43" r="11" stroke="#507BE6" stroke-width="2"/>
<path d="M48.751 36.4609V38.4912H47.6914V36.4609H48.751ZM48.6211 47.624V49.4561H47.5684V47.624H48.6211ZM49.5098 45.3955C49.5098 45.1357 49.4596 44.9102 49.3594 44.7188C49.2637 44.5273 49.1019 44.3564 48.874 44.2061C48.6507 44.0557 48.3499 43.9121 47.9717 43.7754C47.3838 43.5612 46.8688 43.3265 46.4268 43.0713C45.9847 42.8115 45.6406 42.4902 45.3945 42.1074C45.153 41.7246 45.0322 41.2415 45.0322 40.6582C45.0322 40.0977 45.1621 39.6123 45.4219 39.2021C45.6862 38.7874 46.0531 38.4684 46.5225 38.2451C46.9919 38.0173 47.5365 37.9033 48.1562 37.9033C48.6393 37.9033 49.0723 37.9762 49.4551 38.1221C49.8424 38.2633 50.1729 38.4707 50.4463 38.7441C50.7243 39.0176 50.9362 39.3548 51.082 39.7559C51.2324 40.1523 51.3076 40.6058 51.3076 41.1162H49.5029C49.5029 40.8337 49.471 40.583 49.4072 40.3643C49.3434 40.1455 49.2523 39.9609 49.1338 39.8105C49.0153 39.6556 48.8717 39.5394 48.7031 39.4619C48.5391 39.3844 48.3522 39.3457 48.1426 39.3457C47.8418 39.3457 47.5934 39.4027 47.3975 39.5166C47.2061 39.6305 47.0648 39.7855 46.9736 39.9814C46.887 40.1774 46.8438 40.403 46.8438 40.6582C46.8438 40.9043 46.8893 41.1208 46.9805 41.3076C47.0762 41.4899 47.2357 41.6562 47.459 41.8066C47.6868 41.957 47.999 42.1097 48.3955 42.2646C48.988 42.4834 49.5029 42.7249 49.9404 42.9893C50.3779 43.249 50.7174 43.568 50.959 43.9463C51.2005 44.3245 51.3213 44.8031 51.3213 45.3818C51.3213 45.9743 51.1846 46.4756 50.9111 46.8857C50.6423 47.2959 50.264 47.6081 49.7764 47.8223C49.2887 48.0365 48.7214 48.1436 48.0742 48.1436C47.6595 48.1436 47.2493 48.0889 46.8438 47.9795C46.4382 47.8701 46.069 47.6924 45.7363 47.4463C45.4082 47.1956 45.1462 46.8652 44.9502 46.4551C44.7542 46.0404 44.6562 45.5322 44.6562 44.9307H46.4678C46.4678 45.277 46.5133 45.5641 46.6045 45.792C46.6956 46.0199 46.8187 46.2021 46.9736 46.3389C47.1286 46.471 47.3018 46.5645 47.4932 46.6191C47.6846 46.6738 47.8783 46.7012 48.0742 46.7012C48.3932 46.7012 48.6576 46.6465 48.8672 46.5371C49.0814 46.4277 49.2409 46.2751 49.3457 46.0791C49.4551 45.8786 49.5098 45.6507 49.5098 45.3955Z" fill="#507BE6"/>
<path d="M37 27.7679C38.3333 28.5378 38.3333 30.4623 37 31.2321L27.25 36.8612C25.9167 37.631 24.25 36.6688 24.25 35.1292L24.25 23.8708C24.25 22.3312 25.9167 21.369 27.25 22.1388L37 27.7679Z" stroke="#507BE6" stroke-width="2"/>
</svg>
