<svg width="32" height="32" viewBox="0 0 32 32" fill="none" xmlns="http://www.w3.org/2000/svg">
<path fill-rule="evenodd" clip-rule="evenodd" d="M0 16C0 7.16344 7.16344 0 16 0C24.8366 0 32 7.16344 32 16C32 24.8366 24.8366 32 16 32C7.16344 32 0 24.8366 0 16ZM26.1333 15.4158C26.1333 11.0326 21.7073 7.46667 16.2666 7.46667C10.8266 7.46667 6.4 11.0326 6.4 15.4158C6.4 19.3453 9.91016 22.6362 14.6516 23.2585C14.973 23.3272 15.4103 23.4688 15.521 23.7415C15.6205 23.9892 15.586 24.3771 15.5527 24.6273C15.5527 24.6273 15.437 25.3185 15.412 25.4657C15.3691 25.7134 15.2138 26.4343 16.2666 25.9937C17.3197 25.5532 21.9489 22.6721 24.0189 20.3066C25.4488 18.7499 26.1333 17.1701 26.1333 15.4158Z" fill="white"/>
<path fill-rule="evenodd" clip-rule="evenodd" d="M14.2096 13.3333H13.5239C13.4188 13.3333 13.3333 13.4215 13.3333 13.5299V17.9367C13.3333 18.0453 13.4188 18.1333 13.5239 18.1333H14.2096C14.3147 18.1333 14.4 18.0453 14.4 17.9367V13.5299C14.4 13.4215 14.3147 13.3333 14.2096 13.3333Z" fill="white"/>
<path fill-rule="evenodd" clip-rule="evenodd" d="M18.9996 13.3333H18.2777C18.1671 13.3333 18.0773 13.4215 18.0773 13.5299V16.148L16.0225 13.4208C16.0178 13.4138 16.0124 13.4072 16.0069 13.4008L16.0055 13.3996C16.0016 13.3952 15.9976 13.3913 15.9935 13.3874L15.9897 13.3841C15.9864 13.381 15.9828 13.3781 15.9791 13.3754C15.9775 13.3739 15.9757 13.3727 15.974 13.3713C15.9704 13.369 15.9671 13.3665 15.9635 13.3644C15.9615 13.363 15.9596 13.3618 15.9574 13.3609C15.9538 13.3587 15.9503 13.3566 15.9467 13.3549C15.9446 13.3539 15.9426 13.3527 15.9404 13.3519C15.9367 13.3502 15.9329 13.3485 15.929 13.3471C15.9266 13.3463 15.9246 13.3455 15.9225 13.3448C15.9185 13.3434 15.9146 13.3421 15.9104 13.3411C15.9083 13.3403 15.9059 13.3399 15.9035 13.3391C15.8996 13.3384 15.8958 13.3374 15.8921 13.3366C15.8893 13.3362 15.8864 13.3359 15.8836 13.3357C15.8801 13.3349 15.8765 13.3347 15.873 13.3343C15.8696 13.3339 15.8662 13.3339 15.8627 13.3337C15.8601 13.3337 15.8582 13.3333 15.8556 13.3333H15.134C15.0233 13.3333 14.9333 13.4215 14.9333 13.5299V17.9367C14.9333 18.0453 15.0233 18.1333 15.134 18.1333H15.8556C15.9665 18.1333 16.0562 18.0453 16.0562 17.9367V15.3194L18.1136 18.0502C18.1278 18.0699 18.1454 18.086 18.1645 18.0988L18.1665 18.1004C18.1706 18.1029 18.1748 18.1054 18.1789 18.1077C18.1809 18.1089 18.1827 18.1097 18.1846 18.1106C18.1876 18.1124 18.1909 18.1139 18.1941 18.1153C18.1974 18.1167 18.2004 18.118 18.204 18.1194C18.2059 18.1202 18.2079 18.1209 18.2099 18.1215C18.2146 18.1233 18.219 18.1246 18.2235 18.126L18.2264 18.1265C18.2428 18.1308 18.26 18.1333 18.2777 18.1333H18.9996C19.1104 18.1333 19.2 18.0453 19.2 17.9367V13.5299C19.2 13.4215 19.1104 13.3333 18.9996 13.3333Z" fill="white"/>
<path fill-rule="evenodd" clip-rule="evenodd" d="M12.6051 17.0298H10.694V13.5303C10.694 13.4215 10.6065 13.3333 10.4989 13.3333H9.7953C9.68746 13.3333 9.6 13.4215 9.6 13.5303V17.9362C9.6 17.9891 9.62095 18.0374 9.65459 18.0727L9.65728 18.0756L9.66017 18.0783C9.69534 18.1124 9.74263 18.1333 9.79511 18.1333H12.6051C12.7129 18.1333 12.8 18.0449 12.8 17.9362V17.2268C12.8 17.118 12.7129 17.0298 12.6051 17.0298Z" fill="white"/>
<path fill-rule="evenodd" clip-rule="evenodd" d="M22.7384 14.4368C22.8463 14.4368 22.9333 14.3488 22.9333 14.2399V13.5305C22.9333 13.4217 22.8463 13.3333 22.7384 13.3333H19.9286C19.876 13.3333 19.8281 13.3547 19.7929 13.389L19.7906 13.3911L19.7875 13.3946C19.7541 13.4299 19.7333 13.4776 19.7333 13.5303V17.9364C19.7333 17.9893 19.7543 18.0374 19.7879 18.0727L19.7906 18.0756L19.7935 18.0783C19.8285 18.1122 19.876 18.1333 19.9283 18.1333H22.7384C22.8463 18.1333 22.9333 18.0449 22.9333 17.9364V17.2268C22.9333 17.1182 22.8463 17.0298 22.7384 17.0298H20.8275V16.285H22.7384C22.8463 16.285 22.9333 16.1968 22.9333 16.088V15.3787C22.9333 15.2699 22.8463 15.1815 22.7384 15.1815H20.8275V14.4368H22.7384Z" fill="white"/>
</svg>
