<svg width="60" height="60" viewBox="0 0 60 60" fill="none" xmlns="http://www.w3.org/2000/svg">
<path d="M17 16H39" stroke="#507BE6" stroke-width="2" stroke-linecap="round"/>
<path d="M17 22H39" stroke="#507BE6" stroke-width="2" stroke-linecap="round"/>
<path d="M17 28H39" stroke="#507BE6" stroke-width="2" stroke-linecap="round"/>
<path fill-rule="evenodd" clip-rule="evenodd" d="M13 8H44C44.5523 8 45 8.44772 45 9V35.2521C45.7329 35.7793 46.4039 36.3871 47 37.0625V9C47 7.34315 45.6569 6 44 6H13C11.3431 6 10 7.34315 10 9V50C10 51.6569 11.3431 53 13 53H29.0556C28.5068 52.3868 28.0201 51.7168 27.6054 51H13C12.4477 51 12 50.5523 12 50V9C12 8.44772 12.4477 8 13 8Z" fill="#507BE6"/>
<path d="M38 56C44.0751 56 49 51.0751 49 45C49 38.9249 44.0751 34 38 34C31.9249 34 27 38.9249 27 45C27 51.0751 31.9249 56 38 56Z" stroke="#507BE6" stroke-width="2"/>
<path d="M38.751 38.4609V40.4912H37.6914V38.4609H38.751ZM38.6212 49.624V51.4561H37.5685V49.624H38.6212ZM39.5098 47.3955C39.5098 47.1357 39.4597 46.9102 39.3595 46.7188C39.2638 46.5273 39.102 46.3564 38.8741 46.2061C38.6508 46.0557 38.3499 45.9121 37.9717 45.7754C37.3838 45.5612 36.8688 45.3265 36.4268 45.0713C35.9847 44.8115 35.6407 44.4902 35.3946 44.1074C35.1531 43.7246 35.0322 43.2415 35.0322 42.6582C35.0322 42.0977 35.1622 41.6123 35.422 41.2021C35.6863 40.7874 36.0531 40.4684 36.5225 40.2451C36.9919 40.0173 37.5366 39.9033 38.1562 39.9033C38.6393 39.9033 39.0724 39.9762 39.4552 40.1221C39.8425 40.2633 40.173 40.4707 40.4464 40.7441C40.7243 41.0176 40.9363 41.3548 41.0821 41.7559C41.2325 42.1523 41.3076 42.6058 41.3076 43.1162H39.5029C39.5029 42.8337 39.471 42.583 39.4072 42.3643C39.3434 42.1455 39.2524 41.9609 39.1339 41.8105C39.0153 41.6556 38.8717 41.5394 38.7031 41.4619C38.5391 41.3844 38.3523 41.3457 38.1427 41.3457C37.8419 41.3457 37.5934 41.4027 37.3975 41.5166C37.2061 41.6305 37.0648 41.7855 36.9736 41.9814C36.887 42.1774 36.8438 42.403 36.8438 42.6582C36.8438 42.9043 36.8893 43.1208 36.9805 43.3076C37.0762 43.4899 37.2357 43.6562 37.459 43.8066C37.6868 43.957 37.999 44.1097 38.3955 44.2646C38.988 44.4834 39.5029 44.7249 39.9404 44.9893C40.3779 45.249 40.7174 45.568 40.959 45.9463C41.2005 46.3245 41.3214 46.8031 41.3214 47.3818C41.3214 47.9743 41.1846 48.4756 40.9111 48.8857C40.6423 49.2959 40.2641 49.6081 39.7765 49.8223C39.2888 50.0365 38.7214 50.1436 38.0742 50.1436C37.6595 50.1436 37.2493 50.0889 36.8438 49.9795C36.4382 49.8701 36.0691 49.6924 35.7364 49.4463C35.4083 49.1956 35.1462 48.8652 34.9502 48.4551C34.7542 48.0404 34.6562 47.5322 34.6562 46.9307H36.4678C36.4678 47.277 36.5133 47.5641 36.6045 47.792C36.6956 48.0199 36.8187 48.2021 36.9736 48.3389C37.1286 48.471 37.3018 48.5645 37.4932 48.6191C37.6846 48.6738 37.8783 48.7012 38.0742 48.7012C38.3932 48.7012 38.6576 48.6465 38.8672 48.5371C39.0814 48.4277 39.2409 48.2751 39.3457 48.0791C39.4551 47.8786 39.5098 47.6507 39.5098 47.3955Z" fill="#507BE6"/>
</svg>
