<svg width="60" height="60" viewBox="0 0 60 60" fill="none" xmlns="http://www.w3.org/2000/svg">
<circle cx="41" cy="37" r="16" stroke="#507BE6" stroke-width="2"/>
<path d="M41.7871 27.5156V30.416H40.2734V27.5156H41.7871ZM41.6016 43.4629V46.0801H40.0977V43.4629H41.6016ZM42.8711 40.2793C42.8711 39.9082 42.7995 39.5859 42.6562 39.3125C42.5195 39.0391 42.2884 38.7949 41.9629 38.5801C41.6439 38.3652 41.2142 38.1602 40.6738 37.9648C39.834 37.6589 39.0983 37.3236 38.4668 36.959C37.8353 36.5879 37.3438 36.1289 36.9922 35.582C36.6471 35.0352 36.4746 34.3451 36.4746 33.5117C36.4746 32.7109 36.6602 32.0176 37.0312 31.4316C37.4089 30.8392 37.9329 30.3835 38.6035 30.0645C39.2741 29.7389 40.0521 29.5762 40.9375 29.5762C41.6276 29.5762 42.2461 29.6803 42.793 29.8887C43.3464 30.0905 43.8184 30.3867 44.209 30.7773C44.6061 31.168 44.9089 31.6497 45.1172 32.2227C45.332 32.7891 45.4395 33.4368 45.4395 34.166H42.8613C42.8613 33.7624 42.8158 33.4043 42.7246 33.0918C42.6335 32.7793 42.5033 32.5156 42.334 32.3008C42.1647 32.0794 41.9596 31.9134 41.7188 31.8027C41.4844 31.6921 41.2174 31.6367 40.918 31.6367C40.4883 31.6367 40.1335 31.7181 39.8535 31.8809C39.5801 32.0436 39.3783 32.265 39.248 32.5449C39.1243 32.8249 39.0625 33.1471 39.0625 33.5117C39.0625 33.8633 39.1276 34.1725 39.2578 34.4395C39.3945 34.6999 39.6224 34.9375 39.9414 35.1523C40.2669 35.3672 40.7129 35.5853 41.2793 35.8066C42.1257 36.1191 42.8613 36.4642 43.4863 36.8418C44.1113 37.2129 44.5964 37.6686 44.9414 38.209C45.2865 38.7493 45.459 39.4329 45.459 40.2598C45.459 41.1061 45.2637 41.8223 44.873 42.4082C44.4889 42.9941 43.9486 43.4401 43.252 43.7461C42.5553 44.0521 41.7448 44.2051 40.8203 44.2051C40.2279 44.2051 39.6419 44.127 39.0625 43.9707C38.4831 43.8145 37.9557 43.5605 37.4805 43.209C37.0117 42.8509 36.6374 42.3789 36.3574 41.793C36.0775 41.2005 35.9375 40.4746 35.9375 39.6152H38.5254C38.5254 40.11 38.5905 40.5202 38.7207 40.8457C38.8509 41.1712 39.0267 41.4316 39.248 41.627C39.4694 41.8158 39.7168 41.9492 39.9902 42.0273C40.2637 42.1055 40.5404 42.1445 40.8203 42.1445C41.276 42.1445 41.6536 42.0664 41.9531 41.9102C42.2591 41.7539 42.487 41.5358 42.6367 41.2559C42.793 40.9694 42.8711 40.6439 42.8711 40.2793Z" fill="#507BE6"/>
<path fill-rule="evenodd" clip-rule="evenodd" d="M28.8341 23C27.9359 28.354 23.4923 32.5058 18 32.9589V31C18 30.4477 17.5523 30 17 30C16.4477 30 16 30.4477 16 31V32.9589C10.5077 32.5058 6.06415 28.354 5.16592 23H7C7.55228 23 8 22.5523 8 22C8 21.4477 7.55228 21 7 21H5C5 14.7093 9.84047 9.54922 16 9.04107V11C16 11.5523 16.4477 12 17 12C17.5523 12 18 11.5523 18 11V9.04107C24.1595 9.54922 29 14.7093 29 21H27C26.4477 21 26 21.4477 26 22C26 22.5523 26.4477 23 27 23H28.8341ZM31 21C31 28.732 24.732 35 17 35C9.26801 35 3 28.732 3 21C3 13.268 9.26801 7 17 7C24.732 7 31 13.268 31 21ZM17 15C17.5523 15 18 15.4477 18 16V21H21C21.5523 21 22 21.4477 22 22C22 22.5523 21.5523 23 21 23H17.001H17C16.4477 23 16 22.5523 16 22V16C16 15.4477 16.4477 15 17 15Z" fill="#507BE6"/>
<path d="M23.5 48.5H13.5C13.2239 48.5 13 48.2761 13 48V40M13 40L8.5 43.5M13 40L17.5 43.5" stroke="#507BE6" stroke-width="2" stroke-linecap="round"/>
<path d="M32 7H42.5C42.7761 7 43 7.22386 43 7.5V15.5M43 15.5L47.5 12M43 15.5L38.5 12" stroke="#507BE6" stroke-width="2" stroke-linecap="round"/>
</svg>
