<svg width="60" height="60" viewBox="0 0 60 60" fill="none" xmlns="http://www.w3.org/2000/svg">
<path d="M55 11H5C3.89543 11 3 11.8954 3 13V47C3 48.1046 3.89543 49 5 49H55C56.1046 49 57 48.1046 57 47V13C57 11.8954 56.1046 11 55 11Z" stroke="#507BE6" stroke-width="2"/>
<path d="M4 19H56" stroke="#507BE6" stroke-width="2"/>
<g opacity="0.9">
<path fill-rule="evenodd" clip-rule="evenodd" d="M40.9748 29.7631C40.8512 29.2248 40.3146 28.8887 39.7763 29.0124C39.238 29.136 38.9019 29.6726 39.0256 30.2109L40.5382 36.7949C40.8949 38.3471 43.1055 38.3471 43.4621 36.7949L44.0004 34.4516L44.5388 36.7949C44.8954 38.3471 47.106 38.3471 47.4626 36.7949L48.9753 30.2109C49.0989 29.6726 48.7628 29.136 48.2246 29.0124C47.6863 28.8887 47.1497 29.2248 47.0261 29.7631L46.0007 34.226L44.9754 29.7631C44.8689 29.2997 44.4565 28.9862 44.0004 28.9868C43.5444 28.9862 43.1319 29.2997 43.0255 29.7631L42.0002 34.226L40.9748 29.7631Z" fill="#507BE6"/>
<path fill-rule="evenodd" clip-rule="evenodd" d="M26.9748 29.7631C26.8512 29.2248 26.3146 28.8887 25.7763 29.0124C25.238 29.136 24.9019 29.6726 25.0256 30.2109L26.5382 36.7949C26.8949 38.3471 29.1055 38.3471 29.4621 36.7949L30.0004 34.4516L30.5388 36.7949C30.8954 38.3471 33.106 38.3471 33.4626 36.7949L34.9753 30.2109C35.0989 29.6726 34.7628 29.136 34.2246 29.0124C33.6863 28.8887 33.1497 29.2248 33.0261 29.7631L32.0007 34.226L30.9754 29.7631C30.8689 29.2997 30.4565 28.9862 30.0004 28.9868C29.5444 28.9862 29.1319 29.2997 29.0255 29.7631L28.0002 34.226L26.9748 29.7631Z" fill="#507BE6"/>
<path fill-rule="evenodd" clip-rule="evenodd" d="M12.9748 29.7631C12.8512 29.2248 12.3146 28.8887 11.7763 29.0124C11.238 29.136 10.9019 29.6726 11.0256 30.2109L12.5382 36.7949C12.8949 38.3471 15.1055 38.3471 15.4621 36.7949L16.0004 34.4516L16.5388 36.7949C16.8954 38.3471 19.106 38.3471 19.4626 36.7949L20.9753 30.2109C21.0989 29.6726 20.7628 29.136 20.2246 29.0124C19.6863 28.8887 19.1497 29.2248 19.0261 29.7631L18.0007 34.226L16.9754 29.7631C16.8689 29.2997 16.4565 28.9862 16.0004 28.9868C15.5444 28.9862 15.1319 29.2997 15.0255 29.7631L14.0002 34.226L12.9748 29.7631Z" fill="#507BE6"/>
</g>
<path d="M7 16C7.55228 16 8 15.5523 8 15C8 14.4477 7.55228 14 7 14C6.44772 14 6 14.4477 6 15C6 15.5523 6.44772 16 7 16Z" fill="#507BE6"/>
<path d="M11 16C11.5523 16 12 15.5523 12 15C12 14.4477 11.5523 14 11 14C10.4477 14 10 14.4477 10 15C10 15.5523 10.4477 16 11 16Z" fill="#507BE6"/>
<path d="M15 16C15.5523 16 16 15.5523 16 15C16 14.4477 15.5523 14 15 14C14.4477 14 14 14.4477 14 15C14 15.5523 14.4477 16 15 16Z" fill="#507BE6"/>
</svg>
