<svg xmlns="http://www.w3.org/2000/svg" viewBox="0 0 344.04 72.76"><defs><style>.cls-1{fill:#e45440;}.cls-2{fill:#2d313a;}</style></defs><title>資產 11</title><g id="圖層_2" data-name="圖層 2"><g id="圖層_1-2" data-name="圖層 1"><path class="cls-1" d="M93.13,19.11a1.15,1.15,0,0,1,.3-.8,1.05,1.05,0,0,1,.84-.34h5.27a1.23,1.23,0,0,1,.4.08,1.39,1.39,0,0,1,.41.23,1.79,1.79,0,0,1,.31.36,1,1,0,0,1,.13.47V34.53l14.55-15.76a1.45,1.45,0,0,1,1.15-.8h7.42c.46,0,.7.1.7.31a1,1,0,0,1-.31.55l-13.7,16,16,20.68a1.55,1.55,0,0,1,.39.75c0,.19-.18.28-.54.28h-7.89a1.42,1.42,0,0,1-1.15-.8L105.2,40.16l-4.41,4.56V55.36c0,.76-.42,1.14-1.25,1.14H94.27a1,1,0,0,1-1.14-1.14Z"/><path class="cls-1" d="M127.38,37.28a19.6,19.6,0,0,1,.71-5.27,19.4,19.4,0,0,1,2-4.75,20.53,20.53,0,0,1,3.1-4,19.38,19.38,0,0,1,4-3.1,19.91,19.91,0,0,1,4.74-2,19.65,19.65,0,0,1,10.54,0,20,20,0,0,1,4.73,2,19.81,19.81,0,0,1,7.12,7.12,19.82,19.82,0,0,1,2,4.75A19.3,19.3,0,0,1,167,37.3a19.06,19.06,0,0,1-.72,5.27,19.94,19.94,0,0,1-2,4.72,19.12,19.12,0,0,1-3.1,4,19.86,19.86,0,0,1-31.15-4,19.32,19.32,0,0,1-2-4.72A19.62,19.62,0,0,1,127.38,37.28Zm7.5-.06a12.71,12.71,0,0,0,1,4.91,12.23,12.23,0,0,0,6.49,6.64,12.38,12.38,0,0,0,9.7,0,12.57,12.57,0,0,0,3.91-2.67,12.34,12.34,0,0,0,2.61-4,12.7,12.7,0,0,0,.94-4.91,12.58,12.58,0,0,0-.94-4.87,12.43,12.43,0,0,0-2.61-4A12.27,12.27,0,0,0,152,25.68a12.38,12.38,0,0,0-9.7,0,12.07,12.07,0,0,0-3.89,2.68,12.71,12.71,0,0,0-3.55,8.86Z"/><path class="cls-1" d="M174.93,19.11A1.11,1.11,0,0,1,176.12,18h5.14a1.24,1.24,0,0,1,.82.3,1.05,1.05,0,0,1,.34.84V49.39h16.25a1.09,1.09,0,0,1,.8.33,1.15,1.15,0,0,1,.34.87v4.75a1.16,1.16,0,0,1-.31.81,1,1,0,0,1-.83.35H176.06a1,1,0,0,1-1.13-1.14Z"/><path class="cls-2" d="M205.29,55.54a8.32,8.32,0,0,1,.29-1c.12-.29.22-.56.3-.8l14-34.82a1.56,1.56,0,0,1,.43-.64,1.29,1.29,0,0,1,.95-.35h4.17a1.13,1.13,0,0,1,.9.31,3.52,3.52,0,0,1,.4.55l.86,2,13.7,34.28a1.31,1.31,0,0,0,0,.27,2.43,2.43,0,0,1,0,.33c0,.52-.38.77-1.14.77H235.1a1.42,1.42,0,0,1-.88-.23,1.68,1.68,0,0,1-.52-.73l-.47-1.19c-.32-.83-.65-1.66-1-2.49s-.65-1.67-1-2.52h-16c-.45,1.21-.89,2.35-1.31,3.41s-.79,2-1.08,2.79a1.33,1.33,0,0,1-1.35,1h-5.19a1.52,1.52,0,0,1-.79-.18.59.59,0,0,1-.3-.54A.74.74,0,0,1,205.29,55.54Zm18.06-27.68c-.94,2.38-1.87,4.86-2.79,7.42s-1.86,5-2.79,7.39h11Z"/><path class="cls-2" d="M247.9,19.19c0-.81.38-1.22,1.16-1.22h16.23a10.73,10.73,0,0,1,4.24.84,11.09,11.09,0,0,1,3.45,2.3,10.67,10.67,0,0,1,3.15,7.68,10.17,10.17,0,0,1-.75,3.92,10.41,10.41,0,0,1-2.08,3.19,11.23,11.23,0,0,1,1.92,1.79,12.87,12.87,0,0,1,1.48,2.18,11.8,11.8,0,0,1,1,2.48A11,11,0,0,1,278,45a11.23,11.23,0,0,1-.87,4.38,12.3,12.3,0,0,1-2.36,3.66,11.17,11.17,0,0,1-3.52,2.5,10.23,10.23,0,0,1-4.33.92H249.06a1.28,1.28,0,0,1-.84-.27,1,1,0,0,1-.32-.84Zm20.73,9.73a4.86,4.86,0,0,0-.35-1.84,4.45,4.45,0,0,0-1-1.48,4.23,4.23,0,0,0-1.49-1,5,5,0,0,0-1.91-.36h-8.5v9.4h8.42a5,5,0,0,0,1.92-.36,4.58,4.58,0,0,0,2.53-2.51A4.88,4.88,0,0,0,268.63,28.92Zm1.69,15.91A4.91,4.91,0,0,0,270,43.1a5,5,0,0,0-2.15-2.65,5,5,0,0,0-1.64-.61l-1-.14a9.77,9.77,0,0,0-1.08-.06H255.4V50.17h8.68c.36,0,.72,0,1.06,0a7.22,7.22,0,0,0,1-.14,4.16,4.16,0,0,0,1.64-.6A5.24,5.24,0,0,0,270,46.66,5.34,5.34,0,0,0,270.32,44.83Z"/><path class="cls-2" d="M284.9,19.11A1.11,1.11,0,0,1,286.09,18h5.15a1.2,1.2,0,0,1,.81.3,1.06,1.06,0,0,1,.35.84V49.39h16.24a1.12,1.12,0,0,1,.81.33,1.18,1.18,0,0,1,.34.87v4.75a1.2,1.2,0,0,1-.31.81,1.05,1.05,0,0,1-.84.35H286a1,1,0,0,1-1.14-1.14Z"/><path class="cls-2" d="M316.07,19.21c0-.83.38-1.24,1.14-1.24h25a1.13,1.13,0,0,1,1,.38,1.53,1.53,0,0,1,.29.95v4.58a1.19,1.19,0,0,1-1.3,1.2H323.72v7.86h14.22a1.07,1.07,0,0,1,.83.22,1.16,1.16,0,0,1,.31.92v4.7a1.34,1.34,0,0,1-.26.83A1,1,0,0,1,338,40H323.72v9.42h19.13a1.16,1.16,0,0,1,1,.32,1.66,1.66,0,0,1,.23,1v4.74c0,.73-.38,1.09-1.14,1.09H317.21a1.32,1.32,0,0,1-.81-.25,1,1,0,0,1-.33-.84Z"/><rect class="cls-1" x="45.2" y="30.17" width="24.74" height="6.05" transform="translate(-6.61 50.43) rotate(-45)"/><polygon class="cls-1" points="43.93 42.55 22.93 63.55 27.21 67.83 48.24 46.81 43.93 42.55"/><rect class="cls-2" x="35.48" y="-0.76" width="6.05" height="46.13" transform="translate(27.05 -20.7) rotate(45)"/><rect class="cls-2" x="42.09" y="26.2" width="6.05" height="43.28" transform="translate(110.85 49.76) rotate(135)"/><rect class="cls-1" x="20.06" y="3.86" width="6.05" height="64.82"/><path class="cls-2" d="M36.38,6.14A30.24,30.24,0,1,1,6.14,36.38,30.27,30.27,0,0,1,36.38,6.14m0-6.14A36.38,36.38,0,1,0,72.76,36.38,36.38,36.38,0,0,0,36.38,0Z"/></g></g></svg>